<svg width="1280" height="640" viewBox="0 0 1280 640" fill="none" xmlns="http://www.w3.org/2000/svg">
  <rect width="1280" height="640" rx="32" fill="#0B1220"/>
  <rect x="32" y="32" width="1216" height="576" rx="24" fill="url(#bg)"/>
  <circle cx="1060" cy="164" r="110" fill="#15334C"/>
  <circle cx="1120" cy="126" r="46" fill="#2E5E7E"/>
  <circle cx="980" cy="228" r="34" fill="#7DC7D9"/>
  <rect x="88" y="92" width="458" height="72" rx="16" fill="#10263A"/>
  <text x="120" y="138" fill="#F7FAFC" font-family="Arial, Helvetica, sans-serif" font-size="34" font-weight="700">agentproof</text>
  <text x="88" y="206" fill="#D4E4EE" font-family="Arial, Helvetica, sans-serif" font-size="56" font-weight="700">Agent-oriented verification</text>
  <text x="88" y="270" fill="#D4E4EE" font-family="Arial, Helvetica, sans-serif" font-size="56" font-weight="700">challenges for Python</text>
  <text x="88" y="332" fill="#A9C5D7" font-family="Arial, Helvetica, sans-serif" font-size="28">Deterministic challenge generation, solving, and verification</text>
  <text x="88" y="370" fill="#A9C5D7" font-family="Arial, Helvetica, sans-serif" font-size="28">for APIs, agent gateways, and experiment platforms.</text>
  <rect x="88" y="438" width="238" height="64" rx="18" fill="#8AD7C3"/>
  <text x="126" y="478" fill="#06232F" font-family="Arial, Helvetica, sans-serif" font-size="28" font-weight="700">proof_of_work</text>
  <rect x="344" y="438" width="316" height="64" rx="18" fill="#F2B880"/>
  <text x="382" y="478" fill="#2B1608" font-family="Arial, Helvetica, sans-serif" font-size="28" font-weight="700">semantic_math_lock</text>
  <rect x="754" y="124" width="346" height="364" rx="26" fill="#091A2A" stroke="#345773" stroke-width="2"/>
  <text x="790" y="176" fill="#F7FAFC" font-family="Arial, Helvetica, sans-serif" font-size="24" font-weight="700">Verification flow</text>
  <rect x="790" y="208" width="274" height="62" rx="14" fill="#0F2A3E"/>
  <text x="822" y="247" fill="#DDECF4" font-family="Arial, Helvetica, sans-serif" font-size="22">1. Issue challenge JSON</text>
  <rect x="790" y="292" width="274" height="62" rx="14" fill="#0F2A3E"/>
  <text x="822" y="331" fill="#DDECF4" font-family="Arial, Helvetica, sans-serif" font-size="22">2. Agent solves it</text>
  <rect x="790" y="376" width="274" height="62" rx="14" fill="#0F2A3E"/>
  <text x="822" y="415" fill="#DDECF4" font-family="Arial, Helvetica, sans-serif" font-size="22">3. Server verifies</text>
  <path d="M690 238H760" stroke="#86C5D8" stroke-width="6" stroke-linecap="round"/>
  <path d="M690 322H760" stroke="#86C5D8" stroke-width="6" stroke-linecap="round"/>
  <path d="M690 406H760" stroke="#86C5D8" stroke-width="6" stroke-linecap="round"/>
  <defs>
    <linearGradient id="bg" x1="81" y1="76" x2="1175" y2="574" gradientUnits="userSpaceOnUse">
      <stop stop-color="#0D1C2B"/>
      <stop offset="1" stop-color="#163650"/>
    </linearGradient>
  </defs>
</svg>
